<svg xmlns="http://www.w3.org/2000/svg" viewBox="0 0 900 680" font-family="'Segoe UI', Arial, sans-serif">
  <defs>
    <filter id="sh" x="-2%" y="-2%" width="104%" height="104%"><feDropShadow dx="1" dy="1" stdDeviation="2" flood-opacity="0.08"/></filter>
  </defs>

  <text x="450" y="28" text-anchor="middle" font-size="17" font-weight="700" fill="#1a1a1a">Figure 5: AS 1319-1994 Compliance Check Framework</text>
  <text x="450" y="48" text-anchor="middle" font-size="11" fill="#666">20 checks categorised by assessment method</text>

  <!-- Column 1: Auto-Assessed -->
  <rect x="20" y="65" width="280" height="520" rx="10" fill="#EAFAF1" stroke="#27AE60" stroke-width="2" filter="url(#sh)"/>
  <rect x="30" y="72" width="180" height="26" rx="6" fill="#27AE60"/>
  <text x="120" y="90" text-anchor="middle" font-size="11" font-weight="700" fill="#fff">AUTO-ASSESSED (7)</text>
  <text x="30" y="116" font-size="10" fill="#555">From image analysis only</text>

  <rect x="35" y="130" width="250" height="38" rx="6" fill="#fff" stroke="#27AE60" stroke-width="1"/>
  <text x="45" y="148" font-size="10" font-weight="600" fill="#1E8449">1. Correct Colour</text>
  <text x="45" y="162" font-size="8" fill="#777">Clause 2.2 — K-means + grid colour analysis</text>

  <rect x="35" y="175" width="250" height="38" rx="6" fill="#fff" stroke="#27AE60" stroke-width="1"/>
  <text x="45" y="193" font-size="10" font-weight="600" fill="#1E8449">2. Correct Shape</text>
  <text x="45" y="207" font-size="8" fill="#777">Clause 2.2 — 3-method shape ensemble</text>

  <rect x="35" y="220" width="250" height="38" rx="6" fill="#fff" stroke="#27AE60" stroke-width="1"/>
  <text x="45" y="238" font-size="10" font-weight="600" fill="#1E8449">3. Correct Legend Colour</text>
  <text x="45" y="252" font-size="8" fill="#777">Table 3.1 — secondary colour matching</text>

  <rect x="35" y="265" width="250" height="38" rx="6" fill="#fff" stroke="#27AE60" stroke-width="1"/>
  <text x="45" y="283" font-size="10" font-weight="600" fill="#1E8449">4. Standard Symbol</text>
  <text x="45" y="297" font-size="8" fill="#777">Clause 3.1/3.2 — Appendix B classification</text>

  <rect x="35" y="310" width="250" height="38" rx="6" fill="#fff" stroke="#27AE60" stroke-width="1"/>
  <text x="45" y="328" font-size="10" font-weight="600" fill="#1E8449">5. Legible</text>
  <text x="45" y="342" font-size="8" fill="#777">Clause 3.4 — Laplacian sharpness + contrast ratio</text>

  <rect x="35" y="355" width="250" height="38" rx="6" fill="#fff" stroke="#27AE60" stroke-width="1"/>
  <text x="45" y="373" font-size="10" font-weight="600" fill="#1E8449">6. Good Condition</text>
  <text x="45" y="387" font-size="8" fill="#777">Clause 4.3 — average saturation threshold</text>

  <rect x="35" y="400" width="250" height="38" rx="6" fill="#fff" stroke="#27AE60" stroke-width="1"/>
  <text x="45" y="418" font-size="10" font-weight="600" fill="#1E8449">7. Colour Fidelity</text>
  <text x="45" y="432" font-size="8" fill="#777">Clause 3.5 — RGB distance to AS 2700 reference</text>

  <!-- Detection methods -->
  <rect x="35" y="450" width="250" height="120" rx="6" fill="#D5F5E3" stroke="#27AE60" stroke-width="0.5"/>
  <text x="45" y="468" font-size="9" font-weight="700" fill="#1E8449">Detection Methods Used:</text>
  <text x="45" y="485" font-size="8" fill="#555">Colour: K-means clustering + grid spatial</text>
  <text x="45" y="499" font-size="8" fill="#555">Shape: fill-ratio + contour + radial symmetry</text>
  <text x="45" y="513" font-size="8" fill="#555">Legibility: Laplacian variance + WCAG contrast</text>
  <text x="45" y="527" font-size="8" fill="#555">Condition: average saturation measurement</text>
  <text x="45" y="541" font-size="8" fill="#555">Fidelity: Euclidean RGB to AS 2700 refs</text>
  <text x="45" y="557" font-size="8" fill="#555">(R13 #CC0000, Y15 #FDB813,</text>
  <text x="45" y="569" font-size="8" fill="#555"> G21 #006B3F, B23 #004B87)</text>

  <!-- Column 2: Semi-Auto -->
  <rect x="315" y="65" width="260" height="200" rx="10" fill="#FEF9E7" stroke="#F39C12" stroke-width="2" filter="url(#sh)"/>
  <rect x="325" y="72" width="160" height="26" rx="6" fill="#F39C12"/>
  <text x="405" y="90" text-anchor="middle" font-size="11" font-weight="700" fill="#fff">SEMI-AUTO (2)</text>
  <text x="325" y="116" font-size="10" fill="#555">Detected but needs confirmation</text>

  <rect x="330" y="130" width="230" height="48" rx="6" fill="#fff" stroke="#F39C12" stroke-width="1"/>
  <text x="340" y="148" font-size="10" font-weight="600" fill="#B7950B">8. Correct Enclosure</text>
  <text x="340" y="162" font-size="8" fill="#777">Clause 2.2 — white border detection</text>
  <text x="340" y="174" font-size="8" fill="#999">Confidence: 0.4 (low — needs review)</text>

  <rect x="330" y="185" width="230" height="48" rx="6" fill="#fff" stroke="#F39C12" stroke-width="1"/>
  <text x="340" y="203" font-size="10" font-weight="600" fill="#B7950B">9. Correct Layout</text>
  <text x="340" y="217" font-size="8" fill="#777">Clause 2.3 — symbol-only vs composite</text>
  <text x="340" y="229" font-size="8" fill="#999">Requires text detection (Vision API)</text>

  <!-- Column 3: Manual -->
  <rect x="590" y="65" width="290" height="520" rx="10" fill="#F2F3F4" stroke="#95A5A6" stroke-width="2" filter="url(#sh)"/>
  <rect x="600" y="72" width="140" height="26" rx="6" fill="#95A5A6"/>
  <text x="670" y="90" text-anchor="middle" font-size="11" font-weight="700" fill="#fff">MANUAL (11)</text>
  <text x="600" y="116" font-size="10" fill="#555">Require auditor judgment on-site</text>

  <rect x="605" y="130" width="260" height="30" rx="5" fill="#fff" stroke="#BDC3C7" stroke-width="1"/>
  <text x="615" y="150" font-size="9" fill="#555">10. Adequate size (Clause 3.4.2)</text>

  <rect x="605" y="166" width="260" height="30" rx="5" fill="#fff" stroke="#BDC3C7" stroke-width="1"/>
  <text x="615" y="186" font-size="9" fill="#555">11. Visible / not obscured (Clause 4.2.1)</text>

  <rect x="605" y="202" width="260" height="30" rx="5" fill="#fff" stroke="#BDC3C7" stroke-width="1"/>
  <text x="615" y="222" font-size="9" fill="#555">12. Location / siting (Clause 4.2.2)</text>

  <rect x="605" y="238" width="260" height="30" rx="5" fill="#fff" stroke="#BDC3C7" stroke-width="1"/>
  <text x="615" y="258" font-size="9" fill="#555">13. Mounting height ~1500mm (Clause 4.2.2)</text>

  <rect x="605" y="274" width="260" height="30" rx="5" fill="#fff" stroke="#BDC3C7" stroke-width="1"/>
  <text x="615" y="294" font-size="9" fill="#555">14. Not on moveable object (Clause 4.2.4)</text>

  <rect x="605" y="310" width="260" height="30" rx="5" fill="#fff" stroke="#BDC3C7" stroke-width="1"/>
  <text x="615" y="330" font-size="9" fill="#555">15. Construction safe (Clause 4.1.1)</text>

  <rect x="605" y="346" width="260" height="30" rx="5" fill="#fff" stroke="#BDC3C7" stroke-width="1"/>
  <text x="615" y="366" font-size="9" fill="#555">16. Adequate illumination (Clause 4.2.5)</text>

  <rect x="605" y="382" width="260" height="30" rx="5" fill="#fff" stroke="#BDC3C7" stroke-width="1"/>
  <text x="615" y="402" font-size="9" fill="#555">17. Does not create hazard (Clause 4.1)</text>

  <rect x="605" y="418" width="260" height="30" rx="5" fill="#fff" stroke="#BDC3C7" stroke-width="1"/>
  <text x="615" y="438" font-size="9" fill="#555">18. Still relevant (Clause 4.1)</text>

  <rect x="605" y="454" width="260" height="30" rx="5" fill="#fff" stroke="#BDC3C7" stroke-width="1"/>
  <text x="615" y="474" font-size="9" fill="#555">19. Not cluttered (Clause 4.2.6)</text>

  <rect x="605" y="490" width="260" height="30" rx="5" fill="#fff" stroke="#BDC3C7" stroke-width="1"/>
  <text x="615" y="510" font-size="9" fill="#555">20. Tag compliant (Section 5)</text>

  <text x="615" y="550" font-size="9" font-weight="600" fill="#717D7E">These checks require:</text>
  <text x="615" y="566" font-size="8" fill="#95A5A6">- Physical inspection</text>
  <text x="615" y="578" font-size="8" fill="#95A5A6">- Distance/height measurement</text>
  <text x="615" y="590" font-size="8" fill="#95A5A6">- Site context knowledge</text>

  <!-- Overall Assessment Formula -->
  <rect x="20" y="600" width="860" height="55" rx="10" fill="#004B87" filter="url(#sh)"/>
  <text x="450" y="622" text-anchor="middle" font-size="12" font-weight="700" fill="#fff">OVERALL ASSESSMENT (automated from 7 auto-assessed checks)</text>

  <rect x="40" y="632" width="180" height="18" rx="4" fill="#27AE60"/>
  <text x="130" y="645" text-anchor="middle" font-size="9" font-weight="700" fill="#fff">7/7 pass → COMPLIANT</text>

  <rect x="240" y="632" width="240" height="18" rx="4" fill="#F39C12"/>
  <text x="360" y="645" text-anchor="middle" font-size="9" font-weight="700" fill="#fff">5-6/7 pass → MINOR NON-COMPLIANCE</text>

  <rect x="500" y="632" width="240" height="18" rx="4" fill="#E74C3C"/>
  <text x="620" y="645" text-anchor="middle" font-size="9" font-weight="700" fill="#fff">≤4/7 pass → MAJOR NON-COMPLIANCE</text>

  <text x="450" y="675" text-anchor="middle" font-size="9" fill="#aaa">SymbioTeK Pty Ltd (ACN 694 230 334) — Confidential</text>
</svg>